<svg xmlns="http://www.w3.org/2000/svg" width="2560" height="1440" viewBox="0 0 2560 1440">
  <defs>
    <linearGradient id="copperMetal" gradientUnits="userSpaceOnUse" x1="1116.9" y1="556.9" x2="1443.1" y2="883.1"><stop offset="0%" stop-color="#5a3a20"/><stop offset="28%" stop-color="#c88147"/><stop offset="50%" stop-color="#ecd3bf"/><stop offset="72%" stop-color="#c88147"/><stop offset="100%" stop-color="#5a3a20"/></linearGradient><linearGradient id="goldMetal" gradientUnits="userSpaceOnUse" x1="1153.3" y1="593.3" x2="1406.7" y2="846.7"><stop offset="0%" stop-color="#65512e"/><stop offset="28%" stop-color="#e0b367"/><stop offset="50%" stop-color="#f4e4ca"/><stop offset="72%" stop-color="#e0b367"/><stop offset="100%" stop-color="#65512e"/></linearGradient>
  </defs>
  <rect x="0" y="0" width="2560" height="1440" fill="#090808"/>
  <path d="M 1436.02,767.70 L 1435.33,769.91 L 1434.60,772.12 L 1433.84,774.31 L 1433.05,776.50 L 1432.24,778.67 L 1431.39,780.83 L 1430.51,782.97 L 1429.59,785.11 L 1428.65,787.23 L 1427.68,789.34 L 1426.68,791.43 L 1425.65,793.51 L 1424.59,795.57 L 1423.50,797.62 L 1422.38,799.66 L 1421.23,801.67 L 1420.06,803.67 L 1418.85,805.66 L 1417.62,807.62 L 1416.36,809.57 L 1415.07,811.50 L 1413.76,813.41 L 1412.42,815.31 L 1411.05,817.18 L 1409.65,819.04 L 1408.23,820.87 L 1406.78,822.68 L 1405.31,824.48 L 1403.81,826.25 L 1402.29,828.00 L 1400.74,829.73 L 1399.16,831.43 L 1397.57,833.12 L 1395.95,834.78 L 1394.30,836.42 L 1392.63,838.03 L 1390.94,839.62 L 1389.23,841.19 L 1387.50,842.73 L 1385.74,844.24 L 1383.96,845.74 L 1382.16,847.20 L 1380.34,848.64 L 1378.50,850.06 L 1376.64,851.44 L 1374.76,852.81 L 1372.87,854.14 L 1370.95,855.45 L 1369.01,856.73 L 1367.06,857.98 L 1365.09,859.20 L 1363.10,860.40 L 1361.09,861.57 L 1359.07,862.71 L 1357.03,863.82 L 1354.98,864.90 L 1352.91,865.95 L 1350.83,866.97 L 1348.73,867.97 L 1346.62,868.93 L 1344.49,869.86 L 1342.36,870.76 L 1340.20,871.63 L 1338.04,872.48 L 1335.87,873.29 L 1333.68,874.06 L 1331.48,874.81 L 1329.28,875.53 L 1327.06,876.21 L 1324.83,876.87 L 1322.60,877.49 L 1320.35,878.08 L 1318.10,878.64 L 1315.84,879.16 L 1313.57,879.66 L 1311.30,880.12 L 1309.02,880.55 L 1306.73,880.94 L 1304.44,881.31 L 1302.14,881.64 L 1299.84,881.94 L 1297.54,882.20 L 1295.23,882.44 L 1292.91,882.64 L 1290.60,882.80 L 1288.28,882.94 L 1285.96,883.04 L 1283.64,883.11 L 1281.32,883.14 L 1279.00,883.15 L 1276.68,883.12 L 1274.36,883.05 L 1272.04,882.95 L 1269.73,882.83 L 1267.41,882.66 L 1265.10,882.47 L 1262.79,882.24 L 1260.48,881.98 L 1258.18,881.68 L 1255.89,881.36 L 1253.59,881.00 L 1251.31,880.61 L 1249.02,880.18 L 1246.75,879.72 L 1244.48,879.24 L 1242.22,878.71 L 1239.96,878.16 L 1237.72,877.57 L 1235.48,876.96 L 1233.25,876.31 L 1231.04,875.63 L 1228.83,874.92 L 1226.63,874.17 L 1224.44,873.40 L 1222.26,872.59 L 1220.10,871.75 L 1217.95,870.89 L 1215.81,869.99 L 1213.68,869.06 L 1211.57,868.10 L 1209.47,867.11 L 1207.38,866.10 L 1205.31,865.05 L 1203.26,863.97 L 1201.22,862.87 L 1199.19,861.73 L 1197.18,860.57 L 1195.19,859.37 L 1193.22,858.15 L 1191.26,856.91 L 1189.32,855.63 L 1187.40,854.33 L 1185.50,853.00 L 1183.62,851.64 L 1181.76,850.25 L 1179.91,848.84 L 1178.09,847.41 L 1176.29,845.94 L 1174.51,844.46 L 1172.75,842.94 L 1171.01,841.40 L 1169.30,839.84 L 1167.60,838.26 L 1165.93,836.65 L 1164.28,835.01 L 1162.66,833.35 L 1161.06,831.67 L 1159.48,829.97 L 1157.93,828.24 L 1156.40,826.50 L 1154.90,824.73 L 1153.42,822.94 L 1151.97,821.13 L 1150.55,819.30 L 1149.15,817.44 L 1147.78,815.57 L 1146.43,813.68 L 1145.11,811.77 L 1143.82,809.85 L 1142.55,807.90 L 1141.32,805.94 L 1140.11,803.95 L 1138.93,801.96 L 1137.78,799.94 L 1136.66,797.91 L 1135.56,795.86 L 1134.50,793.80 L 1133.46,791.72 L 1132.46,789.63 L 1131.48,787.53 L 1130.54,785.41 L 1129.62,783.28 L 1128.74,781.13 L 1127.88,778.97 L 1127.06,776.80 L 1126.27,774.62 L 1125.50,772.43 L 1124.77,770.23 L 1124.08,768.01 L 1123.41,765.79 L 1122.77,763.56 L 1122.17,761.32 L 1121.60,759.07 L 1121.06,756.81 L 1120.55,754.55 L 1120.08,752.28 L 1119.63,750.00 L 1119.22,747.71 L 1118.84,745.42 L 1118.50,743.13 L 1118.19,740.83 L 1117.91,738.53 L 1117.66,736.22 L 1117.45,733.91 L 1117.26,731.59 L 1117.12,729.28 L 1117.00,726.96 L 1116.92,724.64 L 1116.87,722.32 L 1116.85,720.00 L 1116.87,717.68 L 1116.92,715.36 L 1117.00,713.04 L 1117.12,710.72 L 1117.26,708.41 L 1117.45,706.09 L 1117.66,703.78 L 1117.91,701.47 L 1118.19,699.17 L 1118.50,696.87 L 1118.84,694.58 L 1119.22,692.29 L 1119.63,690.00 L 1120.08,687.72 L 1120.55,685.45 L 1121.06,683.19 L 1121.60,680.93 L 1122.17,678.68 L 1122.77,676.44 L 1123.41,674.21 L 1124.08,671.99 L 1124.77,669.77 L 1125.50,667.57 L 1126.27,665.38 L 1127.06,663.20 L 1127.88,661.03 L 1128.74,658.87 L 1129.62,656.72 L 1130.54,654.59 L 1131.48,652.47 L 1132.46,650.37 L 1133.46,648.28 L 1134.50,646.20 L 1135.56,644.14 L 1136.66,642.09 L 1137.78,640.06 L 1138.93,638.04 L 1140.11,636.05 L 1141.32,634.06 L 1142.55,632.10 L 1143.82,630.15 L 1145.11,628.23 L 1146.43,626.32 L 1147.78,624.43 L 1149.15,622.56 L 1150.55,620.70 L 1151.97,618.87 L 1153.42,617.06 L 1154.90,615.27 L 1156.40,613.50 L 1157.93,611.76 L 1159.48,610.03 L 1161.06,608.33 L 1162.66,606.65 L 1164.28,604.99 L 1165.93,603.35 L 1167.60,601.74 L 1169.30,600.16 L 1171.01,598.60 L 1172.75,597.06 L 1174.51,595.54 L 1176.29,594.06 L 1178.09,592.59 L 1179.91,591.16 L 1181.76,589.75 L 1183.62,588.36 L 1185.50,587.00 L 1187.40,585.67 L 1189.32,584.37 L 1191.26,583.09 L 1193.22,581.85 L 1195.19,580.63 L 1197.18,579.43 L 1199.19,578.27 L 1201.22,577.13 L 1203.26,576.03 L 1205.31,574.95 L 1207.38,573.90 L 1209.47,572.89 L 1211.57,571.90 L 1213.68,570.94 L 1215.81,570.01 L 1217.95,569.11 L 1220.10,568.25 L 1222.26,567.41 L 1224.44,566.60 L 1226.63,565.83 L 1228.83,565.08 L 1231.04,564.37 L 1233.25,563.69 L 1235.48,563.04 L 1237.72,562.43 L 1239.96,561.84 L 1242.22,561.29 L 1244.48,560.76 L 1246.75,560.28 L 1249.02,559.82 L 1251.31,559.39 L 1253.59,559.00 L 1255.89,558.64 L 1258.18,558.32 L 1260.48,558.02 L 1262.79,557.76 L 1265.10,557.53 L 1267.41,557.34 L 1269.73,557.17 L 1272.04,557.05 L 1274.36,556.95 L 1276.68,556.88 L 1279.00,556.85 L 1281.32,556.86 L 1283.64,556.89 L 1285.96,556.96 L 1288.28,557.06 L 1290.60,557.20 L 1292.91,557.36 L 1295.23,557.56 L 1297.54,557.80 L 1299.84,558.06 L 1302.14,558.36 L 1304.44,558.69 L 1306.73,559.06 L 1309.02,559.45 L 1311.30,559.88 L 1313.57,560.34 L 1315.84,560.84 L 1318.10,561.36 L 1320.35,561.92 L 1322.60,562.51 L 1324.83,563.13 L 1327.06,563.79 L 1329.28,564.47 L 1331.48,565.19 L 1333.68,565.94 L 1335.87,566.71 L 1338.04,567.52 L 1340.20,568.37 L 1342.36,569.24 L 1344.49,570.14 L 1346.62,571.07 L 1348.73,572.03 L 1350.83,573.03 L 1352.91,574.05 L 1354.98,575.10 L 1357.03,576.18 L 1359.07,577.29 L 1361.09,578.43 L 1363.10,579.60 L 1365.09,580.80 L 1367.06,582.02 L 1369.01,583.27 L 1370.95,584.55 L 1372.87,585.86 L 1374.76,587.19 L 1376.64,588.56 L 1378.50,589.94 L 1380.34,591.36 L 1382.16,592.80 L 1383.96,594.26 L 1385.74,595.76 L 1387.50,597.27 L 1389.23,598.81 L 1390.94,600.38 L 1392.63,601.97 L 1394.30,603.58 L 1395.95,605.22 L 1397.57,606.88 L 1399.16,608.57 L 1400.74,610.27 L 1402.29,612.00 L 1403.81,613.75 L 1405.31,615.52 L 1406.78,617.32 L 1408.23,619.13 L 1409.65,620.96 L 1411.05,622.82 L 1412.42,624.69 L 1413.76,626.59 L 1415.07,628.50 L 1416.36,630.43 L 1417.62,632.38 L 1418.85,634.34 L 1420.06,636.33 L 1421.23,638.33 L 1422.38,640.34 L 1423.50,642.38 L 1424.59,644.43 L 1425.65,646.49 L 1426.68,648.57 L 1427.68,650.66 L 1428.65,652.77 L 1429.59,654.89 L 1430.51,657.03 L 1431.39,659.17 L 1432.24,661.33 L 1433.05,663.50 L 1433.84,665.69 L 1434.60,667.88 L 1435.33,670.09 L 1436.02,672.30" fill="none" stroke="url(#copperMetal)" stroke-width="3.64" stroke-linecap="round"/>
  <g fill="url(#goldMetal)">
    <path d="M1158.7563803118312 721.6307031488841 1158.62188933048 721.4962121675329C1154.7216508712931 724.1860317945583 1153.275872821767 727.3129471109752 1153.275872821767 730.1036349740141C1153.275872821767 733.7685142158361 1156.739015591562 736.6936930602262 1161.3117089575053 736.6936930602262C1167.6327850810148 736.6936930602262 1171.0623051054722 732.0201314582696 1171.0623051054722 726.9430969122592C1171.0623051054722 723.2109721797615 1168.5742219504739 720.722889024763 1166.1870070314887 718.335674105778C1163.9006603485172 716.0493274228065 1161.6815591562213 713.8638489758483 1161.6815591562213 710.7033109140935C1161.6815591562213 707.2065453989605 1164.0687740752064 705.0546896973402 1166.8258391929073 705.0546896973402C1170.02 705.0546896973402 1171.8020055029042 707.6100183430144 1172.1046102109447 712.2499571996332H1172.205478446958L1172.7434423723632 704.7184622439621H1172.6425741363496C1172.239101192296 705.2228034240294 1171.8020055029042 705.3909171507185 1171.3312870681748 705.3909171507185C1170.356227453378 705.3909171507185 1168.7759584225007 704.7184622439621 1166.9939529195965 704.7184622439621C1163.0937144604097 704.7184622439621 1160.269403852033 707.6436410883522 1160.269403852033 711.711993274228C1160.269403852033 714.838908590645 1162.5893732803424 716.9571415469276 1164.9093427086518 719.2434882298991C1167.2293121369612 721.5298349128707 1169.5492815652706 723.9842953225314 1169.5492815652706 727.8845337817181C1169.5492815652706 732.5244726383369 1166.7585937022318 736.3238428615102 1161.3453317028432 736.3238428615102C1157.478715988994 736.3238428615102 1154.8225191073066 733.4995322531336 1154.8225191073066 730.0027667380006C1154.8225191073066 727.2457016202997 1155.8984469581167 724.1524090492204 1158.7563803118312 721.6307031488841Z"/><path d="M1179.1317639865483 709.8291195353103 1174.79442983797 728.6242341791501H1176.1729623968204L1177.7868541730356 721.5970804035463C1178.9300275145215 717.0243870376032 1182.325924793641 712.1154662182819 1186.2597859981656 712.1154662182819C1187.9073005197185 712.1154662182819 1188.5461326811371 713.2250168144299 1188.5461326811371 714.670794863956C1188.5461326811371 715.578608988077 1188.243527973097 716.8226505655763 1187.9073005197185 718.0330693977377L1186.6296361968816 722.4376490369917C1185.8563130541118 725.1274686640171 1185.6881993274228 726.1361510241517 1185.6881993274228 727.1112106389484C1185.6881993274228 728.3216294711098 1186.3270314888412 728.9604616325283 1187.503827575665 728.9604616325283C1189.2522103332312 728.9604616325283 1190.8661021094465 726.8758514215837 1192.1773891776213 724.1187863038826L1192.0092754509324 724.0179180678691C1190.798856618771 726.4723784775298 1189.2185875878936 728.4224977071232 1188.0754142464077 728.4224977071232C1187.4029593396515 728.4224977071232 1187.0331091409355 727.918156527056 1187.0331091409355 727.0103424029348C1187.0331091409355 726.3378874961785 1187.2684683583002 725.0602231733415 1188.0754142464077 722.2695353103027L1189.319455823907 718.0330693977377C1189.689306022623 716.8226505655763 1189.8910424946498 715.6458544787527 1189.8910424946498 714.7716630999694C1189.8910424946498 712.821543870376 1188.7478691531642 711.6447477835525 1186.5623907062059 711.6447477835525C1182.3931702843165 711.6447477835525 1179.4343686945888 716.2846866401712 1178.4929318251297 718.6046560684806L1182.0233200856005 703.2726841944359H1181.956074594925C1181.1155059614796 704.3149892999082 1179.770596147967 705.0546896973402 1178.3584408437785 705.1219351880159L1178.3248180984408 705.2228034240294C1179.367123203913 705.4245398960562 1179.7033506572911 705.8952583307857 1179.7033506572911 706.6685814735555C1179.7033506572911 707.4082818709875 1179.4679914399264 708.4169642311219 1179.1317639865483 709.8291195353103Z"/><path d="M1200.2468480586977 728.9604616325283C1202.0624763069397 728.9604616325283 1204.416068480587 727.9854020177315 1206.4670559461938 724.8584867013146L1206.2989422195049 724.7239957199633C1204.3824457352491 727.4474380923265 1202.1297217976155 728.4897431977988 1200.4149617853868 728.4897431977988C1198.162237847753 728.4897431977988 1196.2457413634975 727.2120788749618 1196.2457413634975 723.143726689086C1196.2457413634975 722.7066309996943 1196.2793641088354 722.202289819627 1196.3466095995109 721.6979486395597L1200.6839437480894 720.7565117701009C1205.3238826047082 719.7478294099664 1208.0137022317335 717.965823907062 1208.0137022317335 715.0742678080098C1208.0137022317335 713.4603760317946 1206.7696606542343 711.6447477835525 1203.676368083155 711.6447477835525C1198.5993335371447 711.6447477835525 1194.5646040966067 717.5623509630083 1194.5646040966067 723.143726689086C1194.5646040966067 727.918156527056 1197.4561601956589 728.9604616325283 1200.2468480586977 728.9604616325283ZM1196.4138550901866 721.294475695506C1197.0190645062673 717.2597462549679 1199.5407704066035 711.9473524915928 1203.5418771018037 711.9473524915928C1205.7946010394376 711.9473524915928 1206.3998104555183 713.6284897584836 1206.3998104555183 715.0070223173342C1206.3998104555183 718.167560379089 1203.9117273005197 719.7478294099664 1200.6839437480894 720.4202843167227Z"/><path d="M1222.0343870376032 728.9604616325283C1223.7827697951698 728.9604616325283 1225.3966615713848 726.8758514215837 1226.7079486395598 724.1187863038826L1226.5398349128707 724.0179180678691C1225.3294160807093 726.4723784775298 1223.749147049832 728.4224977071232 1222.605973708346 728.4224977071232C1221.9335188015898 728.4224977071232 1221.5636686028738 727.918156527056 1221.5636686028738 727.0103424029348C1221.5636686028738 726.3378874961785 1221.7990278202385 725.0602231733415 1222.605973708346 722.2695353103027L1223.8500152858453 718.0330693977377C1224.2198654845613 716.8226505655763 1224.4216019565881 715.6458544787527 1224.4216019565881 714.7716630999694C1224.4216019565881 712.821543870376 1223.2784286151025 711.6447477835525 1221.0929501681444 711.6447477835525C1217.0245979822685 711.6447477835525 1214.0994191378784 716.0493274228065 1213.0907367777438 718.4029195964537L1214.704628553959 711.6447477835525H1214.6373830632833C1213.796814429838 712.6870528890248 1212.3846591256497 713.4267532864567 1210.9725038214613 713.4939987771323L1210.9388810761236 713.5948670131459C1211.9811861815958 713.7966034851727 1212.317413634974 714.2673219199022 1212.317413634974 715.040645062672C1212.317413634974 715.780345460104 1212.0820544176092 716.8226505655763 1211.7458269642311 718.2011831244267L1209.2913665545705 728.6242341791501H1210.669899113421L1212.4519046163252 721.1263619688169C1213.6959461938245 716.7217823295629 1216.9909752369306 712.1154662182819 1220.790345460104 712.1154662182819C1222.437859981657 712.1154662182819 1223.0766921430754 713.2250168144299 1223.0766921430754 714.670794863956C1223.0766921430754 715.578608988077 1222.7740874350352 716.8226505655763 1222.437859981657 718.0330693977377L1221.16019565882 722.4376490369917C1220.38687251605 725.1274686640171 1220.2187587893611 726.1361510241517 1220.2187587893611 727.1112106389484C1220.2187587893611 728.3216294711098 1220.8575909507797 728.9604616325283 1222.0343870376032 728.9604616325283Z"/><path d="M1233.7351024151635 736.7273158055641C1238.610400489147 736.7273158055641 1241.7709385509017 734.7771965759706 1241.7709385509017 731.2131855701621C1241.7709385509017 727.9854020177315 1238.1733047997552 727.6155518190155 1235.0127667380004 727.5146835830021C1232.1884561296238 727.4138153469887 1229.5322592479363 727.2457016202997 1229.5322592479363 725.69905533476C1229.5322592479363 724.5222592479364 1231.1797737694894 723.4127086517884 1232.356569856313 722.9083674717211C1233.096270253745 723.3790859064507 1234.0377071232037 723.6144451238154 1235.1472577193517 723.6144451238154C1239.2492326505655 723.6144451238154 1242.3425252216446 720.2185478446958 1242.3425252216446 716.1501956588199C1242.3425252216446 715.6458544787527 1242.275279730969 715.1751360440232 1242.1407887496177 714.7380403546316C1243.8555487618464 713.7293579944971 1244.7297401406297 712.081843472944 1244.7297401406297 711.0059156221339C1244.7297401406297 710.4007062060532 1244.4271354325892 709.8963650259859 1243.6874350351573 709.8963650259859C1243.048602873739 709.8963650259859 1242.6115071843471 710.3670834607153 1242.6115071843471 711.0059156221339C1242.6115071843471 711.8464842555793 1243.4856985631304 712.0145979822685 1243.4856985631304 712.7206756343626C1243.4856985631304 713.2250168144299 1242.9813573830631 713.7966034851727 1242.0062977682664 714.3681901559156C1241.4010883521858 712.7542983797003 1239.8544420666462 711.6447477835525 1237.7025863650258 711.6447477835525C1233.5669886884743 711.6447477835525 1230.2383369000304 715.1078905533476 1230.2383369000304 719.1426199938857C1230.2383369000304 720.6220207887496 1230.877169061449 721.8996851115867 1231.986719657597 722.7066309996943C1230.2383369000304 723.5471996331397 1228.5908223784775 724.959354937328 1228.5908223784775 726.6741149495567C1228.5908223784775 727.4810608376644 1229.0951635585448 727.9854020177315 1229.8684867013144 728.2880067257719C1227.380403546316 729.6665392846224 1226.472589422195 731.3476765515132 1226.472589422195 732.7262091103638C1226.472589422195 735.2815377560379 1229.229654539896 736.7273158055641 1233.7351024151635 736.7273158055641ZM1235.2481259553651 723.311840415775C1233.062647508407 723.311840415775 1231.9194741669214 721.5298349128707 1231.9194741669214 719.1426199938857C1231.9194741669214 715.6794772240905 1234.0377071232037 711.9473524915928 1237.4336044023232 711.9473524915928C1239.5854601039437 711.9473524915928 1240.6613879547538 713.7629807398349 1240.6613879547538 716.0829501681443C1240.6613879547538 719.5797156832773 1238.6776459798225 723.311840415775 1235.2481259553651 723.311840415775ZM1227.4140262916537 732.6253408743504C1227.4140262916537 731.3812992968511 1228.0192357077344 729.8010302659737 1230.2047141546927 728.3888749617854C1231.3815102415163 728.7587251605014 1233.0290247630692 728.7923479058392 1234.6765392846223 728.8595933965148C1237.7025863650258 728.9604616325283 1240.7622561907672 729.2630663405687 1240.7622561907672 731.952885967594C1240.7622561907672 735.079801284011 1237.3327361663098 736.4247110975236 1233.8695933965148 736.4247110975236C1230.2719596453683 736.4247110975236 1227.4140262916537 735.1806695200245 1227.4140262916537 732.6253408743504Z"/><path d="M1244.5280036686029 736.6936930602262C1247.3523142769795 736.6936930602262 1249.7731519413023 733.8021369611739 1253.0345582390705 729.4648028125955L1255.1191684500152 726.7077376948945C1258.9185386731886 721.462589422195 1261.070394374809 717.6968419443596 1261.070394374809 713.4267532864567C1261.070394374809 712.3172026903088 1260.5660531947417 711.6783705288902 1259.8263527973097 711.6783705288902C1259.3220116172424 711.6783705288902 1258.851293182513 712.0145979822685 1258.851293182513 712.7542983797003C1258.851293182513 713.2586395597676 1259.1538978905533 713.5276215224702 1259.4565025985937 713.8638489758483C1259.8599755426476 714.2673219199022 1260.330693977377 714.7044176092938 1260.330693977377 715.6794772240905C1260.330693977377 718.4365423417916 1257.1029104249465 723.4463313971263 1254.4803362885968 726.9094741669214H1254.3794680525832L1249.8740201773157 711.6447477835525H1249.7731519413023C1249.2015652705595 712.4180709263222 1248.159260165087 713.1241485784163 1246.5117456435341 713.3931305411189V713.4939987771323C1248.932583307857 713.5948670131459 1249.5377927239376 715.2760042800367 1250.3111158667075 717.8985784163864L1253.4044084377865 728.3216294711098C1250.1430021400183 732.9279455823907 1247.419559767655 735.7858789361052 1245.940158972791 735.7858789361052C1245.5366860287374 735.7858789361052 1245.3349495567104 735.4832742280648 1245.1668358300215 735.1470467746866C1244.9650993579944 734.8108193213085 1244.7297401406297 734.4409691225925 1244.1917762152248 734.4409691225925C1243.3512075817794 734.4409691225925 1243.0822256190768 735.0461785386732 1243.0822256190768 735.5841424640782C1243.0822256190768 736.1221063894833 1243.5193213084683 736.6936930602262 1244.5280036686029 736.6936930602262Z"/><path d="M1263.1213818404158 727.0103424029348C1263.1213818404158 728.2207612350963 1263.5248547844697 728.9604616325283 1264.8697645979823 728.9604616325283C1266.7862610822378 728.9604616325283 1268.3329073677776 726.6741149495567 1269.5769489452766 724.1187863038826L1269.4088352185877 724.0179180678691C1268.2656618771018 726.3042647508407 1266.6853928462244 728.4224977071232 1265.474974014063 728.4224977071232C1264.7016508712932 728.4224977071232 1264.4999143992663 727.8845337817181 1264.4999143992663 727.1112106389484C1264.4999143992663 726.0016600428004 1264.9706328339958 724.219654539896 1265.4413512687252 722.202289819627L1267.862188933048 711.6447477835525H1267.7949434423724C1266.954374808927 712.6870528890248 1265.5758422500764 713.4267532864567 1264.1636869458882 713.4939987771323L1264.1300642005504 713.5948670131459C1265.1723693060226 713.7966034851727 1265.508596759401 714.2336991745643 1265.508596759401 715.0070223173342C1265.508596759401 715.7467227147662 1265.3404830327117 716.7554050749006 1265.0042555793336 718.1339376337512L1264.0964414552125 722.034176092938C1263.457609293794 724.7239957199633 1263.1213818404158 726.0016600428004 1263.1213818404158 727.0103424029348ZM1267.4587159889943 708.5514552124732C1268.232039131764 708.5514552124732 1268.9381167838583 707.8453775603791 1268.9381167838583 706.9039406909202C1268.9381167838583 706.3995995108529 1268.6355120758178 706.0633720574748 1268.0975481504129 706.0633720574748C1267.2569795169672 706.0633720574748 1266.584524610211 706.7358269642311 1266.584524610211 707.6436410883522C1266.584524610211 708.1816050137572 1266.8871293182513 708.5514552124732 1267.4587159889943 708.5514552124732Z"/><path d="M1284.034729440538 728.9604616325283C1285.7831121981046 728.9604616325283 1287.3970039743197 726.8758514215837 1288.7082910424947 724.1187863038826L1288.5401773158055 724.0179180678691C1287.3297584836441 726.4723784775298 1285.7494894527667 728.4224977071232 1284.6063161112809 728.4224977071232C1283.9338612045246 728.4224977071232 1283.5640110058087 727.918156527056 1283.5640110058087 727.0103424029348C1283.5640110058087 726.3378874961785 1283.7993702231734 725.0602231733415 1284.6063161112809 722.2695353103027L1285.8503576887802 718.0330693977377C1286.2202078874961 716.8226505655763 1286.421944359523 715.6458544787527 1286.421944359523 714.7716630999694C1286.421944359523 712.821543870376 1285.2787710180373 711.6447477835525 1283.0932925710792 711.6447477835525C1279.0249403852033 711.6447477835525 1276.0997615408132 716.0493274228065 1275.0910791806787 718.4029195964537L1276.704970956894 711.6447477835525H1276.6377254662182C1275.7971568327728 712.6870528890248 1274.3850015285846 713.4267532864567 1272.972846224396 713.4939987771323L1272.9392234790585 713.5948670131459C1273.9815285845307 713.7966034851727 1274.3177560379088 714.2673219199022 1274.3177560379088 715.040645062672C1274.3177560379088 715.780345460104 1274.082396820544 716.8226505655763 1273.746169367166 718.2011831244267L1271.2917089575053 728.6242341791501H1272.6702415163559L1274.45224701926 721.1263619688169C1275.6962885967594 716.7217823295629 1278.9913176398654 712.1154662182819 1282.7906878630388 712.1154662182819C1284.438202384592 712.1154662182819 1285.0770345460103 713.2250168144299 1285.0770345460103 714.670794863956C1285.0770345460103 715.578608988077 1284.77442983797 716.8226505655763 1284.438202384592 718.0330693977377L1283.1605380617548 722.4376490369917C1282.387214918985 725.1274686640171 1282.219101192296 726.1361510241517 1282.219101192296 727.1112106389484C1282.219101192296 728.3216294711098 1282.8579333537145 728.9604616325283 1284.034729440538 728.9604616325283Z"/><path d="M1303.7712809538368 721.6307031488841 1303.6367899724855 721.4962121675329C1299.7365515132988 724.1860317945583 1298.2907734637727 727.3129471109752 1298.2907734637727 730.1036349740141C1298.2907734637727 733.7685142158361 1301.7539162335677 736.6936930602262 1306.326609599511 736.6936930602262C1312.6476857230205 736.6936930602262 1316.0772057474778 732.0201314582696 1316.0772057474778 726.9430969122592C1316.0772057474778 723.2109721797615 1313.5891225924795 720.722889024763 1311.2019076734944 718.335674105778C1308.9155609905229 716.0493274228065 1306.696459798227 713.8638489758483 1306.696459798227 710.7033109140935C1306.696459798227 707.2065453989605 1309.083674717212 705.0546896973402 1311.840739834913 705.0546896973402C1315.0349006420056 705.0546896973402 1316.8169061449098 707.6100183430144 1317.1195108529503 712.2499571996332H1317.2203790889637L1317.7583430143688 704.7184622439621H1317.6574747783552C1317.2540018343016 705.2228034240294 1316.8169061449098 705.3909171507185 1316.3461877101804 705.3909171507185C1315.3711280953837 705.3909171507185 1313.7908590645063 704.7184622439621 1312.008853561602 704.7184622439621C1308.1086151024153 704.7184622439621 1305.2843044940387 707.6436410883522 1305.2843044940387 711.711993274228C1305.2843044940387 714.838908590645 1307.604273922348 716.9571415469276 1309.9242433506574 719.2434882298991C1312.2442127789668 721.5298349128707 1314.5641822072762 723.9842953225314 1314.5641822072762 727.8845337817181C1314.5641822072762 732.5244726383369 1311.7734943442374 736.3238428615102 1306.3602323448488 736.3238428615102C1302.4936166309997 736.3238428615102 1299.8374197493122 733.4995322531336 1299.8374197493122 730.0027667380006C1299.8374197493122 727.2457016202997 1300.9133476001223 724.1524090492204 1303.7712809538368 721.6307031488841Z"/><path d="M1322.66726383369 728.9604616325283C1324.6173830632833 728.9604616325283 1326.1304066034852 727.0775878936105 1327.4753164169979 723.9842953225314L1327.3072026903087 723.8834270865179C1326.164029348823 726.5060012228677 1324.684628553959 728.3888749617854 1323.2052277590951 728.3888749617854C1322.3310363803118 728.3888749617854 1321.8603179455824 727.7500428003668 1321.8603179455824 726.7413604402324C1321.8603179455824 725.7999235707734 1322.2301681442984 724.421391011923 1322.5663955976765 722.941990217059L1325.0208560073372 712.3172026903088H1329.0892081932132L1329.1900764292266 711.9809752369306H1325.0881014980127L1326.332143075512 706.5677132375421H1326.2312748394986C1324.9872332619993 710.2325924793641 1323.7431916845 711.913729746255 1321.187863038826 711.9809752369306L1321.0869948028126 712.3172026903088H1323.6423234484866L1321.187863038826 722.941990217059C1320.8516355854479 724.3541455212473 1320.5154081320698 725.7999235707734 1320.5154081320698 726.808605930908C1320.5154081320698 728.1535157444207 1321.2214857841639 728.9604616325283 1322.66726383369 728.9604616325283Z"/><path d="M1333.5946560684806 728.9268388871905C1337.2595353103027 728.9268388871905 1340.487318862733 723.8161815958423 1341.4623784775297 721.5298349128707L1341.2942647508407 722.202289819627C1340.6218098440843 725.0938459186793 1340.319205136044 726.1025282788138 1340.319205136044 727.1112106389484C1340.319205136044 728.3216294711098 1340.9580372974624 728.9604616325283 1342.1348333842861 728.9604616325283C1343.8832161418527 728.9604616325283 1345.4971079180677 726.8758514215837 1346.8083949862428 724.1187863038826L1346.6402812595536 724.0179180678691C1345.4298624273922 726.4723784775298 1343.8495933965148 728.4224977071232 1342.706420055029 728.4224977071232C1342.0339651482727 728.4224977071232 1341.6641149495567 727.918156527056 1341.6641149495567 727.0103424029348C1341.6641149495567 726.3378874961785 1342.0003424029348 725.0602231733415 1342.672797309691 722.202289819627L1345.1608804646896 711.6447477835525H1345.0600122286762C1344.6565392846223 712.0482207276062 1344.0849526138795 712.3844481809845 1343.5806114338122 712.5189391623356L1341.8994741669214 719.5797156832773L1342.2020788749617 718.3020513604403C1340.8907918067869 722.941990217059 1337.2259125649648 728.4224977071232 1334.06537450321 728.4224977071232C1332.3169917456435 728.4224977071232 1331.7454050749006 727.4810608376644 1331.7454050749006 725.9680372974625C1331.7454050749006 724.9929776826658 1331.9807642922653 723.7489361051666 1332.3169917456435 722.3704035463161L1334.8723203913175 711.6447477835525H1334.805074900642C1333.9645062671966 712.6870528890248 1332.5523509630082 713.4267532864567 1331.14019565882 713.4939987771323L1331.106572913482 713.5948670131459C1332.1488780189543 713.7966034851727 1332.5187282176703 714.2673219199022 1332.5187282176703 715.040645062672C1332.5187282176703 715.780345460104 1332.249746254968 716.8226505655763 1331.9135188015896 718.2011831244267L1330.938459186793 722.3704035463161C1330.6358544787527 723.7153133598288 1330.400495261388 724.9257321919902 1330.400495261388 725.900791806787C1330.400495261388 727.8172882910425 1331.2074411494955 728.9268388871905 1333.5946560684806 728.9268388871905Z"/><path d="M1353.6674350351575 728.9604616325283C1356.2900091715073 728.9604616325283 1358.5091103638033 727.0439651482727 1360.190247630694 723.8498043411801C1359.7531519413023 725.530941608071 1359.618660959951 726.3378874961785 1359.618660959951 727.1112106389484C1359.618660959951 728.3216294711098 1360.2574931213696 728.9604616325283 1361.4342892081934 728.9604616325283C1363.1826719657597 728.9604616325283 1364.796563741975 726.8758514215837 1366.1078508101498 724.1187863038826L1365.9397370834608 724.0179180678691C1364.7293182512994 726.4723784775298 1363.149049220422 728.4224977071232 1362.0058758789362 728.4224977071232C1361.3334209721797 728.4224977071232 1360.9635707734637 727.918156527056 1360.9635707734637 727.0103424029348C1360.9635707734637 726.3378874961785 1361.2661754815042 725.0602231733415 1361.9722531335983 722.202289819627L1366.7466829715684 703.2726841944359H1366.6794374808928C1365.8388688474474 704.3149892999082 1364.3594680525835 705.0546896973402 1362.947312748395 705.1219351880159L1362.9136900030571 705.2228034240294C1363.9559951085296 705.4245398960562 1364.2922225619077 705.8952583307857 1364.2922225619077 706.6685814735555C1364.2922225619077 707.4082818709875 1364.056863344543 708.4505869764598 1363.7206358911649 709.8291195353103L1362.8128217670437 713.4603760317946C1362.241235096301 712.9224121063895 1360.9635707734637 711.6447477835525 1358.744469581168 711.6447477835525C1352.7259981656987 711.6447477835525 1349.16198715989 718.167560379089 1349.16198715989 723.1773494344237C1349.16198715989 726.4051329868541 1350.6077652094161 728.9604616325283 1353.6674350351575 728.9604616325283ZM1350.8431244267808 723.3454631611128C1350.8431244267808 718.4701650871293 1353.8019260165088 711.9473524915928 1358.6436013451544 711.9473524915928C1361.098061754815 711.9473524915928 1361.9722531335983 713.561244267808 1362.5102170590035 714.6371721186182L1360.7954570467748 721.3617211861816C1359.5177927239376 725.5645643534087 1356.693482115561 728.5233659431367 1354.0709079792114 728.5233659431367C1351.8518067869154 728.5233659431367 1350.8431244267808 726.2370192601651 1350.8431244267808 723.3454631611128Z"/><path d="M1368.4278202384592 727.0103424029348C1368.4278202384592 728.2207612350963 1368.831293182513 728.9604616325283 1370.1762029960257 728.9604616325283C1372.0926994802812 728.9604616325283 1373.639345765821 726.6741149495567 1374.88338734332 724.1187863038826L1374.715273616631 724.0179180678691C1373.5721002751452 726.3042647508407 1371.9918312442678 728.4224977071232 1370.7814124121064 728.4224977071232C1370.0080892693366 728.4224977071232 1369.8063527973097 727.8845337817181 1369.8063527973097 727.1112106389484C1369.8063527973097 726.0016600428004 1370.2770712320391 724.219654539896 1370.7477896667685 722.202289819627L1373.1686273310913 711.6447477835525H1373.1013818404158C1372.2608132069704 712.6870528890248 1370.8822806481198 713.4267532864567 1369.4701253439316 713.4939987771323L1369.4365025985937 713.5948670131459C1370.478807704066 713.7966034851727 1370.8150351574443 714.2336991745643 1370.8150351574443 715.0070223173342C1370.8150351574443 715.7467227147662 1370.6469214307551 716.7554050749006 1370.310693977377 718.1339376337512L1369.4028798532559 722.034176092938C1368.7640476918373 724.7239957199633 1368.4278202384592 726.0016600428004 1368.4278202384592 727.0103424029348ZM1372.7651543870377 708.5514552124732C1373.5384775298073 708.5514552124732 1374.2445551819017 707.8453775603791 1374.2445551819017 706.9039406909202C1374.2445551819017 706.3995995108529 1373.9419504738612 706.0633720574748 1373.4039865484563 706.0633720574748C1372.5634179150106 706.0633720574748 1371.8909630082544 706.7358269642311 1371.8909630082544 707.6436410883522C1371.8909630082544 708.1816050137572 1372.1935677162946 708.5514552124732 1372.7651543870377 708.5514552124732Z"/><path d="M1382.7511097523693 728.9604616325283C1388.5678446958116 728.9604616325283 1392.1318557016202 722.5048945276674 1392.1318557016202 717.4951054723326C1392.1318557016202 714.2673219199022 1390.5515866707428 711.6783705288902 1386.8867074289208 711.6783705288902C1381.0699724854785 711.6783705288902 1377.2369795169673 718.0666921430756 1377.2369795169673 723.0764811984103C1377.2369795169673 726.3042647508407 1379.0862305105472 728.9604616325283 1382.7511097523693 728.9604616325283ZM1382.8856007337206 728.6578569244879C1380.1957811066952 728.6578569244879 1378.918116783858 726.2370192601651 1378.918116783858 723.2782176704371C1378.918116783858 718.4029195964537 1382.0114093549373 711.9809752369306 1386.7185937022316 711.9809752369306C1389.408413329257 711.9809752369306 1390.4507184347294 714.3681901559156 1390.4507184347294 717.3269917456436C1390.4507184347294 722.202289819627 1387.5927850810149 728.6578569244879 1382.8856007337206 728.6578569244879Z"/><path d="M1399.5961051666156 729.0277071232039C1403.6308346071537 729.0277071232039 1405.1774808926934 726.4051329868541 1405.1774808926934 724.0179180678691C1405.1774808926934 722.0005533476001 1403.0592479364109 720.5883980434118 1401.0755059614796 719.4116019565882C1398.990895750535 718.167560379089 1397.2761357383063 717.058009782941 1397.2761357383063 715.1751360440232C1397.2761357383063 713.3931305411189 1399.0581412412107 711.9473524915928 1401.6470926322227 711.9473524915928C1403.597211861816 711.9473524915928 1405.3119718740447 713.0569030877407 1405.3119718740447 714.1328309385509C1405.3119718740447 714.3681901559156 1405.1774808926934 714.5363038826047 1405.0429899113421 714.7380403546316C1404.874876184653 715.0070223173342 1404.6731397126262 715.2760042800367 1404.6731397126262 715.7467227147662C1404.6731397126262 716.3519321308469 1405.1438581473556 716.688159584225 1405.7154448180984 716.688159584225C1406.320654234179 716.688159584225 1406.724127178233 716.1501956588199 1406.724127178233 715.410495261388C1406.724127178233 713.4939987771323 1404.6058942219504 711.6111250382146 1401.6807153775603 711.6111250382146C1398.1839498624274 711.6111250382146 1396.2002078874962 713.6621125038215 1396.2002078874962 715.780345460104C1396.2002078874962 718.0666921430756 1398.1167043717517 719.2434882298991 1400.30218281871 720.5211525527361C1402.2186793029655 721.6307031488841 1404.1687985325589 722.77387649037 1404.1687985325589 724.8248639559768C1404.1687985325589 726.9767196575971 1402.285924793641 728.6914796698258 1399.6297279119535 728.6914796698258C1397.0743992662794 728.6914796698258 1395.6958667074289 727.4138153469887 1395.6958667074289 726.4051329868541C1395.6958667074289 726.068905533476 1395.863980434118 725.8335463161113 1396.032094160807 725.5981870987465C1396.233830632834 725.329205136044 1396.4355671048609 725.0266004280037 1396.4355671048609 724.6231274839498C1396.4355671048609 724.0179180678691 1396.032094160807 723.6480678691531 1395.4605074900642 723.6480678691531C1394.7208070926322 723.6480678691531 1394.3173341485785 724.2532772852338 1394.3173341485785 724.9929776826658C1394.3173341485785 726.6404922042188 1395.8303576887802 729.0277071232039 1399.5961051666156 729.0277071232039Z"/>
  </g>
</svg>